<?xml version="1.0" encoding="UTF-8" standalone="no"?>
<!DOCTYPE svg PUBLIC "-//W3C//DTD SVG 1.1//EN"
 "http://www.w3.org/Graphics/SVG/1.1/DTD/svg11.dtd">
<!-- Generated by graphviz version 2.50.0 (20211209.0339)
 -->
<!-- Title: snakemake_dag Pages: 1 -->
<svg width="780pt" height="476pt"
 viewBox="0.00 0.00 780.18 476.00" xmlns="http://www.w3.org/2000/svg" xmlns:xlink="http://www.w3.org/1999/xlink">
<g id="graph0" class="graph" transform="scale(1 1) rotate(0) translate(4 472)">
<title>snakemake_dag</title>
<polygon fill="white" stroke="transparent" points="-4,4 -4,-472 776.18,-472 776.18,4 -4,4"/>
<!-- 0 -->
<g id="node1" class="node">
<title>0</title>
<path fill="none" stroke="#d8a456" stroke-width="2" d="M455,-36C455,-36 384,-36 384,-36 378,-36 372,-30 372,-24 372,-24 372,-12 372,-12 372,-6 378,0 384,0 384,0 455,0 455,0 461,0 467,-6 467,-12 467,-12 467,-24 467,-24 467,-30 461,-36 455,-36"/>
<text text-anchor="middle" x="419.5" y="-15.5" font-family="sans" font-size="10.00">make_summary</text>
</g>
<!-- 1 -->
<g id="node2" class="node">
<title>1</title>
<path fill="none" stroke="#56d86b" stroke-width="2" d="M83,-108C83,-108 12,-108 12,-108 6,-108 0,-102 0,-96 0,-96 0,-84 0,-84 0,-78 6,-72 12,-72 12,-72 83,-72 83,-72 89,-72 95,-78 95,-84 95,-84 95,-96 95,-96 95,-102 89,-108 83,-108"/>
<text text-anchor="middle" x="47.5" y="-87.5" font-family="sans" font-size="10.00">make_rulegraph</text>
</g>
<!-- 1&#45;&gt;0 -->
<g id="edge6" class="edge">
<title>1&#45;&gt;0</title>
<path fill="none" stroke="grey" stroke-width="2" d="M95.11,-75.44C99.95,-74.21 104.81,-73.04 109.5,-72 196.85,-52.61 299.4,-36.32 361.9,-27.12"/>
<polygon fill="grey" stroke="grey" stroke-width="2" points="362.56,-30.56 371.95,-25.64 361.55,-23.63 362.56,-30.56"/>
</g>
<!-- 2 -->
<g id="node3" class="node">
<title>2</title>
<path fill="none" stroke="#567bd8" stroke-width="2" d="M341.5,-252C341.5,-252 255.5,-252 255.5,-252 249.5,-252 243.5,-246 243.5,-240 243.5,-240 243.5,-228 243.5,-228 243.5,-222 249.5,-216 255.5,-216 255.5,-216 341.5,-216 341.5,-216 347.5,-216 353.5,-222 353.5,-228 353.5,-228 353.5,-240 353.5,-240 353.5,-246 347.5,-252 341.5,-252"/>
<text text-anchor="middle" x="298.5" y="-231.5" font-family="sans" font-size="10.00">get_mut_bind_expr</text>
</g>
<!-- 2&#45;&gt;0 -->
<g id="edge11" class="edge">
<title>2&#45;&gt;0</title>
<path fill="none" stroke="grey" stroke-width="2" d="M303.48,-215.99C312.91,-185.44 335.34,-120 367.5,-72 374.38,-61.73 383.41,-51.72 392,-43.21"/>
<polygon fill="grey" stroke="grey" stroke-width="2" points="394.57,-45.59 399.38,-36.15 389.73,-40.53 394.57,-45.59"/>
</g>
<!-- 4 -->
<g id="node5" class="node">
<title>4</title>
<path fill="none" stroke="#b6d856" stroke-width="2" d="M232.5,-180C232.5,-180 158.5,-180 158.5,-180 152.5,-180 146.5,-174 146.5,-168 146.5,-168 146.5,-156 146.5,-156 146.5,-150 152.5,-144 158.5,-144 158.5,-144 232.5,-144 232.5,-144 238.5,-144 244.5,-150 244.5,-156 244.5,-156 244.5,-168 244.5,-168 244.5,-174 238.5,-180 232.5,-180"/>
<text text-anchor="middle" x="195.5" y="-159.5" font-family="sans" font-size="10.00">bind_expr_filters</text>
</g>
<!-- 2&#45;&gt;4 -->
<g id="edge12" class="edge">
<title>2&#45;&gt;4</title>
<path fill="none" stroke="grey" stroke-width="2" d="M273.3,-215.88C260.09,-206.89 243.71,-195.76 229.39,-186.03"/>
<polygon fill="grey" stroke="grey" stroke-width="2" points="231.03,-182.92 220.79,-180.19 227.1,-188.71 231.03,-182.92"/>
</g>
<!-- 10 -->
<g id="node11" class="node">
<title>10</title>
<path fill="none" stroke="#56a9d8" stroke-width="2" d="M661.5,-180C661.5,-180 593.5,-180 593.5,-180 587.5,-180 581.5,-174 581.5,-168 581.5,-168 581.5,-156 581.5,-156 581.5,-150 587.5,-144 593.5,-144 593.5,-144 661.5,-144 661.5,-144 667.5,-144 673.5,-150 673.5,-156 673.5,-156 673.5,-168 673.5,-168 673.5,-174 667.5,-180 661.5,-180"/>
<text text-anchor="middle" x="627.5" y="-159.5" font-family="sans" font-size="10.00">escape_profiles</text>
</g>
<!-- 2&#45;&gt;10 -->
<g id="edge18" class="edge">
<title>2&#45;&gt;10</title>
<path fill="none" stroke="grey" stroke-width="2" d="M353.57,-221.28C414.04,-208.42 510.63,-187.87 571.48,-174.92"/>
<polygon fill="grey" stroke="grey" stroke-width="2" points="572.25,-178.33 581.3,-172.83 570.79,-171.49 572.25,-178.33"/>
</g>
<!-- 3 -->
<g id="node4" class="node">
<title>3</title>
<path fill="none" stroke="#8fd856" stroke-width="2" d="M303.5,-108C303.5,-108 163.5,-108 163.5,-108 157.5,-108 151.5,-102 151.5,-96 151.5,-96 151.5,-84 151.5,-84 151.5,-78 157.5,-72 163.5,-72 163.5,-72 303.5,-72 303.5,-72 309.5,-72 315.5,-78 315.5,-84 315.5,-84 315.5,-96 315.5,-96 315.5,-102 309.5,-108 303.5,-108"/>
<text text-anchor="middle" x="233.5" y="-87.5" font-family="sans" font-size="10.00">get_early2020_mut_bind_expr</text>
</g>
<!-- 3&#45;&gt;0 -->
<g id="edge2" class="edge">
<title>3&#45;&gt;0</title>
<path fill="none" stroke="grey" stroke-width="2" d="M279,-71.88C304.88,-62.14 337.47,-49.87 364.74,-39.61"/>
<polygon fill="grey" stroke="grey" stroke-width="2" points="366.02,-42.87 374.15,-36.07 363.56,-36.31 366.02,-42.87"/>
</g>
<!-- 4&#45;&gt;0 -->
<g id="edge1" class="edge">
<title>4&#45;&gt;0</title>
<path fill="none" stroke="grey" stroke-width="2" d="M173,-143.93C151.07,-125.23 123.59,-94.87 142.5,-72 169.71,-39.09 288.43,-26.42 361.33,-21.69"/>
<polygon fill="grey" stroke="grey" stroke-width="2" points="361.97,-25.16 371.74,-21.05 361.54,-18.17 361.97,-25.16"/>
</g>
<!-- 5 -->
<g id="node6" class="node">
<title>5</title>
<path fill="none" stroke="#56d892" stroke-width="2" d="M529,-396C529,-396 410,-396 410,-396 404,-396 398,-390 398,-384 398,-384 398,-372 398,-372 398,-366 404,-360 410,-360 410,-360 529,-360 529,-360 535,-360 541,-366 541,-372 541,-372 541,-384 541,-384 541,-390 535,-396 529,-396"/>
<text text-anchor="middle" x="469.5" y="-375.5" font-family="sans" font-size="10.00">aggregate_variant_counts</text>
</g>
<!-- 5&#45;&gt;0 -->
<g id="edge7" class="edge">
<title>5&#45;&gt;0</title>
<path fill="none" stroke="grey" stroke-width="2" d="M439.07,-359.94C425.63,-350.92 410.79,-338.67 401.5,-324 379.8,-289.76 381.5,-275.54 381.5,-235 381.5,-235 381.5,-235 381.5,-161 381.5,-119.63 396.73,-73.72 407.91,-45.61"/>
<polygon fill="grey" stroke="grey" stroke-width="2" points="411.26,-46.67 411.81,-36.09 404.78,-44.02 411.26,-46.67"/>
</g>
<!-- 7 -->
<g id="node8" class="node">
<title>7</title>
<path fill="none" stroke="#d87d56" stroke-width="2" d="M517,-324C517,-324 422,-324 422,-324 416,-324 410,-318 410,-312 410,-312 410,-300 410,-300 410,-294 416,-288 422,-288 422,-288 517,-288 517,-288 523,-288 529,-294 529,-300 529,-300 529,-312 529,-312 529,-318 523,-324 517,-324"/>
<text text-anchor="middle" x="469.5" y="-303.5" font-family="sans" font-size="10.00">counts_to_cells_ratio</text>
</g>
<!-- 5&#45;&gt;7 -->
<g id="edge14" class="edge">
<title>5&#45;&gt;7</title>
<path fill="none" stroke="grey" stroke-width="2" d="M469.5,-359.7C469.5,-351.98 469.5,-342.71 469.5,-334.11"/>
<polygon fill="grey" stroke="grey" stroke-width="2" points="473,-334.1 469.5,-324.1 466,-334.1 473,-334.1"/>
</g>
<!-- 8 -->
<g id="node9" class="node">
<title>8</title>
<path fill="none" stroke="#56d0d8" stroke-width="2" d="M636,-324C636,-324 559,-324 559,-324 553,-324 547,-318 547,-312 547,-312 547,-300 547,-300 547,-294 553,-288 559,-288 559,-288 636,-288 636,-288 642,-288 648,-294 648,-300 648,-300 648,-312 648,-312 648,-318 642,-324 636,-324"/>
<text text-anchor="middle" x="597.5" y="-303.5" font-family="sans" font-size="10.00">counts_to_scores</text>
</g>
<!-- 5&#45;&gt;8 -->
<g id="edge15" class="edge">
<title>5&#45;&gt;8</title>
<path fill="none" stroke="grey" stroke-width="2" d="M500.81,-359.88C517.7,-350.64 538.75,-339.13 556.88,-329.21"/>
<polygon fill="grey" stroke="grey" stroke-width="2" points="558.97,-332.06 566.07,-324.19 555.61,-325.92 558.97,-332.06"/>
</g>
<!-- 6 -->
<g id="node7" class="node">
<title>6</title>
<path fill="none" stroke="#d8cb56" stroke-width="2" d="M502,-468C502,-468 437,-468 437,-468 431,-468 425,-462 425,-456 425,-456 425,-444 425,-444 425,-438 431,-432 437,-432 437,-432 502,-432 502,-432 508,-432 514,-438 514,-444 514,-444 514,-456 514,-456 514,-462 508,-468 502,-468"/>
<text text-anchor="middle" x="469.5" y="-447.5" font-family="sans" font-size="10.00">count_variants</text>
</g>
<!-- 6&#45;&gt;5 -->
<g id="edge13" class="edge">
<title>6&#45;&gt;5</title>
<path fill="none" stroke="grey" stroke-width="2" d="M469.5,-431.7C469.5,-423.98 469.5,-414.71 469.5,-406.11"/>
<polygon fill="grey" stroke="grey" stroke-width="2" points="473,-406.1 469.5,-396.1 466,-406.1 473,-406.1"/>
</g>
<!-- 7&#45;&gt;0 -->
<g id="edge3" class="edge">
<title>7&#45;&gt;0</title>
<path fill="none" stroke="grey" stroke-width="2" d="M464.71,-287.74C458.2,-263.74 446.56,-218.87 439.5,-180 431.04,-133.39 425.06,-78.54 421.96,-46.39"/>
<polygon fill="grey" stroke="grey" stroke-width="2" points="425.4,-45.64 420.98,-36.02 418.44,-46.3 425.4,-45.64"/>
</g>
<!-- 8&#45;&gt;0 -->
<g id="edge9" class="edge">
<title>8&#45;&gt;0</title>
<path fill="none" stroke="grey" stroke-width="2" d="M648.37,-304.21C687.64,-300.58 739.65,-288.56 766.5,-252 775.97,-239.1 771.42,-231.22 766.5,-216 742.21,-140.88 728.53,-115.27 662.5,-72 606.63,-35.39 529.56,-23.68 477.3,-20.13"/>
<polygon fill="grey" stroke="grey" stroke-width="2" points="477.39,-16.63 467.2,-19.53 476.97,-23.62 477.39,-16.63"/>
</g>
<!-- 9 -->
<g id="node10" class="node">
<title>9</title>
<path fill="none" stroke="#d85656" stroke-width="2" d="M745.5,-252C745.5,-252 631.5,-252 631.5,-252 625.5,-252 619.5,-246 619.5,-240 619.5,-240 619.5,-228 619.5,-228 619.5,-222 625.5,-216 631.5,-216 631.5,-216 745.5,-216 745.5,-216 751.5,-216 757.5,-222 757.5,-228 757.5,-228 757.5,-240 757.5,-240 757.5,-246 751.5,-252 745.5,-252"/>
<text text-anchor="middle" x="688.5" y="-231.5" font-family="sans" font-size="10.00">call_strong_escape_sites</text>
</g>
<!-- 8&#45;&gt;9 -->
<g id="edge16" class="edge">
<title>8&#45;&gt;9</title>
<path fill="none" stroke="grey" stroke-width="2" d="M619.99,-287.7C631.46,-278.88 645.56,-268.03 657.98,-258.47"/>
<polygon fill="grey" stroke="grey" stroke-width="2" points="660.47,-260.98 666.26,-252.1 656.2,-255.43 660.47,-260.98"/>
</g>
<!-- 8&#45;&gt;10 -->
<g id="edge19" class="edge">
<title>8&#45;&gt;10</title>
<path fill="none" stroke="grey" stroke-width="2" d="M599.16,-287.78C601.1,-269.74 604.79,-240.64 610.5,-216 612.49,-207.43 615.21,-198.26 617.89,-189.99"/>
<polygon fill="grey" stroke="grey" stroke-width="2" points="621.23,-191.06 621.09,-180.46 614.59,-188.83 621.23,-191.06"/>
</g>
<!-- 11 -->
<g id="node12" class="node">
<title>11</title>
<path fill="none" stroke="#68d856" stroke-width="2" d="M513,-180C513,-180 460,-180 460,-180 454,-180 448,-174 448,-168 448,-168 448,-156 448,-156 448,-150 454,-144 460,-144 460,-144 513,-144 513,-144 519,-144 525,-150 525,-156 525,-156 525,-168 525,-168 525,-174 519,-180 513,-180"/>
<text text-anchor="middle" x="486.5" y="-159.5" font-family="sans" font-size="10.00">output_pdbs</text>
</g>
<!-- 8&#45;&gt;11 -->
<g id="edge20" class="edge">
<title>8&#45;&gt;11</title>
<path fill="none" stroke="grey" stroke-width="2" d="M575.94,-287.95C564.35,-278.16 550.27,-265.22 539.5,-252 523.54,-232.41 509.13,-207.52 499.38,-189.04"/>
<polygon fill="grey" stroke="grey" stroke-width="2" points="502.42,-187.3 494.72,-180.02 496.2,-190.51 502.42,-187.3"/>
</g>
<!-- 12 -->
<g id="node13" class="node">
<title>12</title>
<path fill="none" stroke="#56d8b9" stroke-width="2" d="M587,-108C587,-108 512,-108 512,-108 506,-108 500,-102 500,-96 500,-96 500,-84 500,-84 500,-78 506,-72 512,-72 512,-72 587,-72 587,-72 593,-72 599,-78 599,-84 599,-84 599,-96 599,-96 599,-102 593,-108 587,-108"/>
<text text-anchor="middle" x="549.5" y="-87.5" font-family="sans" font-size="10.00">make_supp_data</text>
</g>
<!-- 8&#45;&gt;12 -->
<g id="edge21" class="edge">
<title>8&#45;&gt;12</title>
<path fill="none" stroke="grey" stroke-width="2" d="M593.65,-287.85C585.33,-250.75 565.61,-162.81 555.58,-118.1"/>
<polygon fill="grey" stroke="grey" stroke-width="2" points="558.97,-117.22 553.37,-108.23 552.14,-118.76 558.97,-117.22"/>
</g>
<!-- 9&#45;&gt;0 -->
<g id="edge4" class="edge">
<title>9&#45;&gt;0</title>
<path fill="none" stroke="grey" stroke-width="2" d="M690.09,-215.7C691.16,-197.33 691.07,-167.74 682.5,-144 669.1,-106.87 663.17,-94.15 630.5,-72 584.82,-41.03 522.54,-28.15 477.5,-22.8"/>
<polygon fill="grey" stroke="grey" stroke-width="2" points="477.63,-19.29 467.3,-21.68 476.86,-26.25 477.63,-19.29"/>
</g>
<!-- 9&#45;&gt;10 -->
<g id="edge17" class="edge">
<title>9&#45;&gt;10</title>
<path fill="none" stroke="grey" stroke-width="2" d="M673.42,-215.7C666.11,-207.3 657.19,-197.07 649.16,-187.86"/>
<polygon fill="grey" stroke="grey" stroke-width="2" points="651.61,-185.34 642.41,-180.1 646.34,-189.94 651.61,-185.34"/>
</g>
<!-- 10&#45;&gt;0 -->
<g id="edge10" class="edge">
<title>10&#45;&gt;0</title>
<path fill="none" stroke="grey" stroke-width="2" d="M628.74,-143.89C629.2,-124.02 626.78,-91.47 608.5,-72 574.99,-36.31 519.58,-23.99 477.39,-20.04"/>
<polygon fill="grey" stroke="grey" stroke-width="2" points="477.49,-16.54 467.24,-19.23 476.93,-23.52 477.49,-16.54"/>
</g>
<!-- 10&#45;&gt;12 -->
<g id="edge22" class="edge">
<title>10&#45;&gt;12</title>
<path fill="none" stroke="grey" stroke-width="2" d="M608.22,-143.7C598.58,-135.05 586.77,-124.45 576.27,-115.03"/>
<polygon fill="grey" stroke="grey" stroke-width="2" points="578.34,-112.18 568.56,-108.1 573.66,-117.39 578.34,-112.18"/>
</g>
<!-- 11&#45;&gt;0 -->
<g id="edge5" class="edge">
<title>11&#45;&gt;0</title>
<path fill="none" stroke="grey" stroke-width="2" d="M478.42,-143.87C466.85,-119.35 445.47,-74.03 431.89,-45.26"/>
<polygon fill="grey" stroke="grey" stroke-width="2" points="435.04,-43.74 427.61,-36.19 428.71,-46.73 435.04,-43.74"/>
</g>
<!-- 12&#45;&gt;0 -->
<g id="edge8" class="edge">
<title>12&#45;&gt;0</title>
<path fill="none" stroke="grey" stroke-width="2" d="M517.7,-71.88C500.39,-62.55 478.78,-50.92 460.24,-40.94"/>
<polygon fill="grey" stroke="grey" stroke-width="2" points="461.89,-37.85 451.42,-36.19 458.57,-44.01 461.89,-37.85"/>
</g>
</g>
</svg>
